<?xml version="1.0" encoding="utf-8"?>
<!-- Generator: Adobe Illustrator 19.2.1, SVG Export Plug-In . SVG Version: 6.00 Build 0)  -->
<svg version="1.1" id="Layer_1" xmlns="http://www.w3.org/2000/svg" xmlns:xlink="http://www.w3.org/1999/xlink" x="0px" y="0px"
	 viewBox="0 0 25.8 25.5" style="enable-background:new 0 0 25.8 25.5;" xml:space="preserve">
<style type="text/css">
	.st0{fill-rule:evenodd;clip-rule:evenodd;fill:#FFFFFF;}
</style>
<path id="instagram_2_" class="st0" d="M22.1,25.2H3.5c-1.7,0-3.1-1.4-3.1-3.1V3.5c0-1.7,1.4-3.1,3.1-3.1h18.6
	c1.7,0,3.1,1.4,3.1,3.1v18.6C25.2,23.9,23.8,25.2,22.1,25.2z M12.8,8c-1.9,0-3.6,1.1-4.4,2.8h0c0,0,0,0,0,0.1c0,0.1-0.1,0.2-0.1,0.3
	c0,0.1,0,0.1-0.1,0.2c0,0.1-0.1,0.2-0.1,0.3c0,0.1,0,0.1,0,0.2c0,0.1,0,0.2-0.1,0.4c0,0,0,0.1,0,0.1c0,0.2,0,0.3,0,0.5
	c0,2.7,2.2,4.8,4.8,4.8c2.7,0,4.8-2.2,4.8-4.8c0-0.2,0-0.3,0-0.5c0,0,0-0.1,0-0.1c0-0.1,0-0.2-0.1-0.4c0-0.1,0-0.1,0-0.2
	c0-0.1-0.1-0.2-0.1-0.3c0-0.1,0-0.1-0.1-0.2c0-0.1-0.1-0.2-0.1-0.3c0,0,0,0,0-0.1h0C16.4,9.2,14.7,8,12.8,8z M22.4,4.4
	c0-0.7-0.6-1.2-1.2-1.2h-2.5c-0.7,0-1.2,0.6-1.2,1.2v2.5c0,0.7,0.6,1.2,1.2,1.2h2.5c0.7,0,1.2-0.6,1.2-1.2V4.4z M22.4,10.8h-2.3
	c0.2,0.6,0.3,1.3,0.3,2c0,4.2-3.4,7.6-7.6,7.6S5.2,17,5.2,12.8c0-0.7,0.1-1.4,0.3-2H3.2v10.4c0,0.7,0.6,1.2,1.2,1.2h16.8
	c0.7,0,1.2-0.6,1.2-1.2V10.8z"/>
</svg>
