<?xml version="1.0" encoding="utf-8"?>
<!-- Generator: Adobe Illustrator 19.2.1, SVG Export Plug-In . SVG Version: 6.00 Build 0)  -->
<svg version="1.1" id="Layer_1" xmlns="http://www.w3.org/2000/svg" xmlns:xlink="http://www.w3.org/1999/xlink" x="0px" y="0px"
	 viewBox="0 0 30 64" style="enable-background:new 0 0 30 64;" xml:space="preserve">
<style type="text/css">
	.st0{fill-rule:evenodd;clip-rule:evenodd;fill:#FFFFFF;}
</style>
<path id="facebook_4_" class="st0" d="M30,0c0,3.7,0,10.3,0,10.3s-7.6-0.8-9.5,2.2c-1,1.6-0.4,6.2-0.5,9.6c3.3,0,6.8,0,10.1,0
	c-0.9,3.9-1.5,6.6-2.1,9.9c-2.9,0-8,0-8,0v32c0,0-9.5,0-14,0c0-9.9,0-21.4,0-31.9c-2.2,0-3.8,0-5.9,0c0-3.7,0-6.4,0-10.1
	c2.1,0,3.8,0,5.9,0C6.2,14.7,6.3,7.4,9.9,3.7C14.1-0.5,18,0,30,0z"/>
</svg>
